<svg viewBox="0 0 100 100" xmlns="http://www.w3.org/2000/svg"><path d="M83,69Q72,88,51.5,85.5Q31,83,17.5,66.5Q4,50,15.5,30Q27,10,49.5,11Q72,12,83,31Q94,50,83,69Z" stroke="none" stroke-width="0" fill="#e3f2ed"/><path d="M74,64.5Q67,79,47,84.5Q27,90,19.5,70Q12,50,23,36Q34,22,50,22Q66,22,73.5,36Q81,50,74,64.5Z" stroke="none" stroke-width="0" fill="#ccece2"/><path d="M84.5,71.5Q75,93,54,86Q33,79,19.5,64.5Q6,50,19.5,35Q33,20,53,15Q73,10,83.5,30Q94,50,84.5,71.5Z" stroke="none" stroke-width="0" fill="#b5e6d7"/><path d="M82.5,71.5Q75,93,54,86.5Q33,80,17,65Q1,50,15,31.5Q29,13,51.5,11Q74,9,82,29.5Q90,50,82.5,71.5Z" stroke="none" stroke-width="0" fill="#9ee0cc"/><path d="M77,66.5Q69,83,49.5,84Q30,85,24,67.5Q18,50,24.5,34Q31,18,52.5,13Q74,8,79.5,29Q85,50,77,66.5Z" stroke="none" stroke-width="0" fill="#87dac1"/><path d="M80,67Q69,84,51,82Q33,80,18,65Q3,50,17,33.5Q31,17,51.5,14.5Q72,12,81.5,31Q91,50,80,67Z" stroke="none" stroke-width="0" fill="#70d4b6"/><path d="M85.5,70Q73,90,51,88.5Q29,87,23.5,68.5Q18,50,26,36Q34,22,54.5,14.5Q75,7,86.5,28.5Q98,50,85.5,70Z" stroke="none" stroke-width="0" fill="#59ceab"/><path d="M78,65Q67,80,48.5,82Q30,84,18.5,67Q7,50,16.5,29.5Q26,9,49,10.5Q72,12,80.5,31Q89,50,78,65Z" stroke="none" stroke-width="0" fill="#42c8a0"/></svg>