<svg class="border shadow-md" viewBox="0 0 813.12 813.12" xmlns="http://www.w3.org/2000/svg" preserveAspectRatio="none" style="width: 813.12px; height: 813.12px;"><rect class="bg" id="bg" x="0" y="0" width="813.12" height="813.12" fill="#ffffff"/><g transform="rotate(0 406.56 406.56)"><path id="-1" d="M -506.56 -51.31 S -263.28 -122.31&#10;            0.00 -51.31 150.56 -110.31&#10;            506.56 -51.31 637.12 -124.31&#10;            1013.12 -51.31 1056.68 -91.97&#10;            1519.68 -51.31 h 110 V 1013.12 H -506.56 Z" fill="#0DFFCC"/><path id="0" d="M -506.56 30.00 S -425.00 -10.66&#10;            0.00 30.00 190.56 -10.66&#10;            506.56 30.00 749.84 -37.00&#10;            1013.12 30.00 1256.40 -10.66&#10;            1519.68 30.00 h 110 V 1013.12 H -506.56 Z" fill="#0febc5"/><path id="1" d="M -506.56 111.31 S -416.00 70.66&#10;            0.00 111.31 88.56 59.31&#10;            506.56 111.31 749.84 32.31&#10;            1013.12 111.31 1088.68 65.31&#10;            1519.68 111.31 h 110 V 1013.12 H -506.56 Z" fill="#11d7be"/><path id="2" d="M -506.56 192.62 S -263.28 151.97&#10;            0.00 192.62 243.28 124.62&#10;            506.56 192.62 749.84 151.97&#10;            1013.12 192.62 1256.40 151.97&#10;            1519.68 192.62 h 110 V 1013.12 H -506.56 Z" fill="#13c3b7"/><path id="3" d="M -506.56 273.94 S -263.28 224.94&#10;            0.00 273.94 98.56 203.94&#10;            506.56 273.94 598.12 201.94&#10;            1013.12 273.94 1036.68 195.94&#10;            1519.68 273.94 h 110 V 1013.12 H -506.56 Z" fill="#15afb0"/><path id="4" d="M -506.56 355.25 S -479.00 285.25&#10;            0.00 355.25 243.28 314.59&#10;            506.56 355.25 670.12 281.25&#10;            1013.12 355.25 1184.68 300.25&#10;            1519.68 355.25 h 110 V 1013.12 H -506.56 Z" fill="#179ba9"/><path id="5" d="M -506.56 436.56 S -455.00 395.90&#10;            0.00 436.56 243.28 375.56&#10;            506.56 436.56 749.84 393.56&#10;            1013.12 436.56 1256.40 380.56&#10;            1519.68 436.56 h 110 V 1013.12 H -506.56 Z" fill="#1987a2"/><path id="6" d="M -506.56 517.87 S -263.28 477.22&#10;            0.00 517.87 243.28 477.22&#10;            506.56 517.87 707.12 477.22&#10;            1013.12 517.87 1256.40 477.22&#10;            1519.68 517.87 h 110 V 1013.12 H -506.56 Z" fill="#1b739b"/><path id="7" d="M -506.56 599.18 S -298.00 558.53&#10;            0.00 599.18 243.28 533.18&#10;            506.56 599.18 746.12 558.53&#10;            1013.12 599.18 1256.40 551.18&#10;            1519.68 599.18 h 110 V 1013.12 H -506.56 Z" fill="#1d5f94"/><path id="8" d="M -506.56 680.50 S -321.00 637.50&#10;            0.00 680.50 142.56 639.84&#10;            506.56 680.50 718.12 639.84&#10;            1013.12 680.50 1088.68 639.84&#10;            1519.68 680.50 h 110 V 1013.12 H -506.56 Z" fill="#1f4b8d"/><path id="9" d="M -506.56 761.81 S -365.00 686.81&#10;            0.00 761.81 243.28 711.81&#10;            506.56 761.81 624.12 685.81&#10;            1013.12 761.81 1256.40 721.15&#10;            1519.68 761.81 h 110 V 1013.12 H -506.56 Z" fill="#213786"/></g></svg>